<svg id="svg" version="1.1" xmlns="http://www.w3.org/2000/svg" xmlns:xlink="http://www.w3.org/1999/xlink" width="400" height="400" viewBox="0, 0, 400,400"><g id="svgg"><path id="path0" d="M156.333 28.894 C 155.508 28.964,154.608 29.115,154.333 29.230 C 154.058 29.345,153.658 29.411,153.443 29.377 C 152.840 29.283,146.901 30.632,146.602 30.932 C 146.455 31.078,147.018 31.941,147.853 32.849 C 151.536 36.858,151.675 37.166,170.832 83.734 L 189.116 128.181 212.808 118.398 C 225.839 113.017,236.673 108.602,236.885 108.585 C 237.097 108.569,237.193 108.356,237.100 108.113 C 237.007 107.870,236.812 107.744,236.667 107.833 C 236.286 108.068,235.983 107.098,236.234 106.445 C 236.367 106.097,236.314 105.972,236.092 106.110 C 235.638 106.391,235.289 105.504,235.567 104.779 C 235.701 104.431,235.648 104.306,235.425 104.443 C 235.025 104.691,234.563 103.771,234.852 103.303 C 234.955 103.136,234.885 103.000,234.697 103.000 C 234.508 103.000,234.450 102.750,234.567 102.445 C 234.701 102.097,234.648 101.972,234.425 102.110 C 233.971 102.391,233.622 101.504,233.900 100.779 C 234.034 100.431,233.981 100.306,233.758 100.443 C 233.304 100.724,232.955 99.838,233.234 99.112 C 233.367 98.764,233.314 98.639,233.092 98.777 C 232.692 99.024,232.230 98.104,232.519 97.637 C 232.622 97.470,232.552 97.333,232.363 97.333 C 232.175 97.333,232.117 97.084,232.234 96.779 C 232.367 96.431,232.314 96.306,232.092 96.443 C 231.638 96.724,231.289 95.838,231.567 95.112 C 231.701 94.764,231.648 94.639,231.425 94.777 C 230.971 95.057,230.622 94.171,230.900 93.445 C 231.034 93.097,230.981 92.972,230.758 93.110 C 230.358 93.357,229.896 92.438,230.185 91.970 C 230.288 91.803,230.219 91.667,230.030 91.667 C 229.842 91.667,229.783 91.417,229.900 91.112 C 230.034 90.764,229.981 90.639,229.758 90.777 C 229.304 91.057,228.955 90.171,229.234 89.445 C 229.389 89.040,229.326 88.965,229.000 89.167 C 228.674 89.368,228.611 89.293,228.766 88.888 C 228.883 88.583,228.838 88.333,228.667 88.333 C 228.495 88.333,228.450 88.084,228.567 87.779 C 228.701 87.431,228.648 87.306,228.425 87.443 C 228.025 87.691,227.563 86.771,227.852 86.303 C 227.955 86.136,227.885 86.000,227.697 86.000 C 227.508 86.000,227.450 85.750,227.567 85.445 C 227.701 85.097,227.648 84.972,227.425 85.110 C 226.971 85.391,226.622 84.504,226.900 83.779 C 227.056 83.373,226.993 83.298,226.667 83.500 C 226.340 83.702,226.277 83.627,226.433 83.221 C 226.550 82.916,226.505 82.667,226.333 82.667 C 226.162 82.667,226.117 82.417,226.234 82.112 C 226.367 81.764,226.314 81.639,226.092 81.777 C 225.692 82.024,225.230 81.104,225.519 80.637 C 225.622 80.470,225.531 80.333,225.317 80.333 C 225.103 80.333,225.018 80.101,225.127 79.816 C 225.257 79.478,225.192 79.381,224.940 79.537 C 224.682 79.697,224.624 79.592,224.766 79.221 C 224.883 78.916,224.838 78.667,224.667 78.667 C 224.495 78.667,224.450 78.417,224.567 78.112 C 224.723 77.707,224.660 77.632,224.333 77.833 C 224.007 78.035,223.944 77.960,224.100 77.555 C 224.217 77.250,224.172 77.000,224.000 77.000 C 223.828 77.000,223.783 76.750,223.900 76.445 C 224.034 76.097,223.981 75.972,223.758 76.110 C 223.358 76.357,222.896 75.438,223.185 74.970 C 223.288 74.803,223.219 74.667,223.030 74.667 C 222.842 74.667,222.774 74.442,222.879 74.167 C 222.985 73.892,222.896 73.667,222.683 73.667 C 222.469 73.667,222.387 73.517,222.500 73.333 C 222.613 73.150,222.552 73.000,222.363 73.000 C 222.175 73.000,222.107 72.775,222.213 72.500 C 222.318 72.225,222.230 72.000,222.016 72.000 C 221.802 72.000,221.720 71.850,221.833 71.667 C 221.947 71.483,221.885 71.333,221.697 71.333 C 221.508 71.333,221.450 71.084,221.567 70.779 C 221.723 70.373,221.660 70.298,221.333 70.500 C 221.007 70.702,220.944 70.627,221.100 70.221 C 221.217 69.916,221.199 69.667,221.060 69.667 C 220.922 69.667,220.783 69.331,220.752 68.922 C 220.722 68.512,220.539 68.124,220.346 68.060 C 220.153 67.996,220.081 67.806,220.184 67.638 C 220.288 67.471,220.205 67.333,220.000 67.333 C 219.795 67.333,219.711 67.198,219.814 67.032 C 220.112 66.549,218.057 62.259,217.648 62.511 C 217.448 62.635,217.333 62.535,217.389 62.283 C 217.573 61.461,216.605 59.569,216.252 60.061 C 216.021 60.383,215.988 60.343,216.128 59.909 C 216.357 59.198,214.423 55.905,213.948 56.199 C 213.769 56.310,213.670 56.123,213.728 55.783 C 213.797 55.377,213.663 55.205,213.333 55.278 C 213.058 55.339,212.941 55.282,213.072 55.151 C 213.432 54.790,212.688 53.614,212.265 53.876 C 212.043 54.013,211.991 53.950,212.135 53.718 C 212.500 53.127,211.989 52.494,211.594 53.048 C 211.344 53.397,211.311 53.372,211.450 52.938 C 211.669 52.252,210.421 50.573,209.922 50.882 C 209.720 51.007,209.660 50.948,209.784 50.747 C 210.072 50.280,206.706 46.603,206.249 46.885 C 206.055 47.005,205.991 46.952,206.105 46.767 C 206.366 46.344,204.948 44.982,204.119 44.861 C 203.779 44.811,203.500 44.582,203.500 44.353 C 203.500 43.790,201.620 42.323,201.218 42.571 C 201.041 42.680,200.999 42.605,201.124 42.403 C 201.396 41.962,199.036 40.272,198.559 40.566 C 198.378 40.678,198.329 40.610,198.450 40.414 C 198.672 40.055,195.520 37.898,194.765 37.892 C 194.544 37.890,194.440 37.764,194.534 37.611 C 194.712 37.323,194.201 37.202,193.333 37.326 C 193.058 37.365,192.945 37.283,193.081 37.145 C 193.434 36.787,192.078 35.912,191.615 36.199 C 191.397 36.334,191.320 36.291,191.438 36.100 C 191.696 35.683,190.083 34.909,189.590 35.214 C 189.389 35.338,189.326 35.282,189.447 35.086 C 189.691 34.690,188.768 34.232,188.303 34.519 C 188.136 34.622,188.000 34.566,188.000 34.394 C 188.000 33.898,184.778 32.645,184.136 32.891 C 183.751 33.039,183.635 32.987,183.790 32.736 C 184.077 32.273,179.554 30.824,178.962 31.190 C 178.725 31.336,178.651 31.295,178.779 31.088 C 179.021 30.696,176.852 30.179,176.328 30.504 C 176.147 30.615,176.000 30.564,176.000 30.391 C 176.000 29.990,171.882 29.199,170.997 29.431 C 170.632 29.526,170.333 29.461,170.333 29.287 C 170.333 29.112,169.696 28.960,168.917 28.949 C 168.137 28.938,165.325 28.893,162.667 28.848 C 160.008 28.803,157.158 28.824,156.333 28.894 M63.249 65.208 C 62.225 65.745,62.020 66.092,62.917 65.770 C 63.237 65.655,63.401 65.671,63.279 65.806 C 63.158 65.942,62.689 66.093,62.238 66.142 C 61.241 66.252,57.331 68.933,57.430 69.440 C 57.468 69.639,57.200 69.809,56.833 69.818 C 56.461 69.826,56.207 70.029,56.258 70.275 C 56.309 70.518,56.209 70.629,56.036 70.523 C 55.621 70.266,53.610 71.972,53.857 72.372 C 53.963 72.543,53.851 72.642,53.608 72.592 C 53.365 72.541,53.208 72.699,53.258 72.941 C 53.310 73.191,53.189 73.284,52.981 73.155 C 52.519 72.870,50.616 74.648,50.897 75.103 C 51.010 75.286,50.948 75.340,50.758 75.223 C 50.400 75.002,48.178 77.482,48.152 78.132 C 48.143 78.335,47.966 78.466,47.758 78.425 C 47.213 78.316,43.580 83.257,43.866 83.719 C 44.004 83.943,43.957 84.013,43.752 83.886 C 43.379 83.655,41.222 86.751,41.222 87.518 C 41.222 87.767,41.113 87.903,40.979 87.821 C 40.639 87.610,40.284 88.651,40.550 89.082 C 40.690 89.307,40.609 89.337,40.328 89.163 C 40.005 88.964,39.945 89.044,40.106 89.463 C 40.227 89.777,40.199 89.957,40.045 89.861 C 39.667 89.627,38.933 91.289,39.214 91.743 C 39.356 91.974,39.278 92.005,38.995 91.830 C 38.672 91.630,38.612 91.711,38.773 92.129 C 38.921 92.515,38.866 92.623,38.606 92.463 C 38.346 92.302,38.292 92.410,38.440 92.796 C 38.560 93.111,38.530 93.288,38.373 93.191 C 37.999 92.960,36.599 96.621,36.884 97.083 C 37.022 97.306,36.942 97.337,36.666 97.166 C 36.340 96.965,36.276 97.079,36.416 97.615 C 36.538 98.080,36.478 98.256,36.246 98.112 C 36.019 97.972,35.965 98.094,36.100 98.445 C 36.217 98.750,36.187 99.000,36.033 99.000 C 35.617 99.000,34.887 101.882,35.182 102.359 C 35.337 102.609,35.299 102.685,35.085 102.552 C 34.688 102.307,33.819 105.437,34.139 105.956 C 34.248 106.132,34.182 106.328,33.991 106.392 C 33.801 106.455,33.612 107.442,33.572 108.584 C 33.533 109.726,33.383 110.662,33.240 110.664 C 33.096 110.665,32.968 111.154,32.954 111.750 C 32.940 112.346,32.863 115.421,32.782 118.583 C 32.702 121.746,32.756 124.334,32.901 124.334 C 33.047 124.334,33.184 125.197,33.206 126.251 C 33.259 128.825,34.154 133.083,35.535 137.333 C 37.533 143.477,54.202 183.513,54.712 183.390 C 54.962 183.330,65.762 178.926,78.712 173.604 L 102.258 163.928 101.427 161.881 C 100.969 160.755,92.940 141.233,83.583 118.500 C 64.128 71.235,64.766 72.960,64.625 67.240 C 64.561 64.654,64.495 64.556,63.249 65.208 M153.167 82.849 C 140.144 88.236,140.023 88.293,139.787 89.234 C 139.552 90.170,142.423 97.343,143.379 98.208 C 143.976 98.749,144.156 98.722,146.876 97.689 C 150.496 96.314,149.497 94.856,156.338 111.500 C 163.136 128.038,162.026 126.493,168.547 128.498 L 173.736 130.095 175.285 129.455 C 177.692 128.460,177.800 128.857,169.973 109.929 C 161.360 89.098,161.936 91.639,165.462 90.018 C 168.956 88.411,168.945 88.464,166.815 83.230 C 164.518 77.584,165.808 77.620,153.167 82.849 M166.224 83.802 C 167.205 86.168,167.968 88.130,167.920 88.162 C 167.872 88.193,166.578 88.729,165.043 89.353 C 163.509 89.977,162.175 90.691,162.080 90.939 C 161.936 91.313,161.854 91.314,161.591 90.945 C 160.850 89.901,161.949 92.680,168.997 109.667 C 173.067 119.475,176.458 127.650,176.533 127.833 C 176.609 128.017,176.024 128.432,175.235 128.755 L 173.800 129.344 168.493 127.654 C 165.574 126.724,163.160 125.934,163.128 125.898 C 163.096 125.863,160.348 119.233,157.022 111.167 C 153.696 103.100,150.727 96.313,150.424 96.083 C 150.024 95.781,149.997 95.667,150.325 95.667 C 150.574 95.667,150.708 95.597,150.623 95.512 C 150.538 95.427,148.999 95.963,147.202 96.702 C 145.406 97.442,143.847 97.959,143.739 97.850 C 143.631 97.742,142.765 95.744,141.815 93.410 L 140.088 89.167 142.294 88.248 C 143.507 87.743,148.775 85.544,154.000 83.362 C 159.225 81.179,163.712 79.417,163.971 79.447 C 164.240 79.477,165.204 81.339,166.224 83.802 M323.845 85.032 C 318.523 85.823,319.891 84.619,289.216 115.516 L 261.599 143.333 259.633 143.333 C 258.437 143.333,257.667 143.191,257.667 142.970 C 257.667 142.771,257.199 143.001,256.627 143.482 C 255.095 144.772,255.687 144.514,229.107 155.455 C 82.996 215.600,67.374 221.979,65.250 222.369 L 63.000 222.782 63.000 245.391 C 63.000 257.826,62.931 268.000,62.848 268.000 C 62.764 268.000,59.185 266.256,54.895 264.123 C 48.174 260.784,46.881 260.251,45.554 260.278 C 41.873 260.352,39.582 263.207,40.101 267.076 C 40.430 269.527,40.880 269.842,52.261 275.588 L 63.000 281.009 63.000 301.092 L 63.000 321.176 52.948 326.171 C 39.461 332.873,38.330 334.037,40.662 338.811 C 42.744 343.076,44.917 342.914,55.250 337.724 C 62.838 333.913,63.333 333.712,63.333 334.455 C 63.333 336.114,64.379 341.135,65.367 344.220 C 71.009 361.832,85.968 374.504,103.658 376.656 C 108.690 377.269,300.042 377.115,304.153 376.496 C 321.145 373.935,335.338 361.427,341.166 343.880 C 342.316 340.414,343.333 336.021,343.333 334.514 C 343.333 333.405,342.577 333.116,351.753 337.725 C 358.884 341.307,360.034 341.786,361.542 341.797 C 366.488 341.833,368.945 335.474,365.282 332.117 C 364.852 331.723,359.811 329.060,354.081 326.198 L 343.661 320.995 343.747 301.081 L 343.833 281.167 353.966 276.110 C 367.446 269.382,368.413 268.440,366.644 263.772 C 364.847 259.028,362.118 259.108,352.034 264.196 C 347.707 266.380,344.054 268.217,343.917 268.278 C 343.779 268.339,343.667 230.233,343.667 183.598 C 343.667 108.372,343.609 98.585,343.154 96.838 C 341.080 88.877,332.652 83.723,323.845 85.032 M133.333 91.231 C 125.113 94.170,120.332 96.648,120.335 97.968 C 120.338 99.644,126.608 134.741,126.968 135.102 C 127.482 135.615,127.446 135.056,126.682 130.616 C 126.324 128.536,125.644 124.583,125.172 121.833 C 124.699 119.083,124.251 116.608,124.176 116.333 C 124.100 116.058,123.951 115.233,123.844 114.500 C 123.737 113.767,123.139 110.242,122.515 106.667 C 121.891 103.092,121.282 99.481,121.161 98.643 L 120.942 97.119 127.644 94.343 C 131.329 92.816,134.393 91.627,134.452 91.700 C 134.511 91.773,139.554 98.808,145.660 107.333 C 157.300 123.586,157.680 124.098,157.928 123.850 C 158.304 123.474,137.243 93.764,135.291 91.917 C 134.292 90.970,134.176 90.930,133.333 91.231 M101.105 103.643 C 93.105 105.811,88.507 110.328,88.524 116.000 C 88.533 118.659,99.859 147.381,102.260 150.833 C 104.982 154.747,110.351 156.094,115.544 154.167 C 118.627 153.024,118.994 152.587,122.705 145.667 C 126.666 138.281,126.735 137.633,124.197 131.722 C 122.171 127.002,122.044 126.927,118.483 128.335 C 110.752 131.390,110.983 131.018,113.287 136.707 C 115.491 142.147,115.555 142.445,114.696 143.304 C 112.911 145.089,112.726 144.782,106.425 129.580 C 100.973 116.429,100.524 114.970,101.698 114.235 C 103.018 113.409,103.865 114.190,105.331 117.580 C 108.794 125.594,108.122 125.151,113.477 122.961 C 117.965 121.126,118.584 120.786,118.826 120.024 C 119.033 119.370,116.517 112.719,114.648 108.980 C 112.211 104.106,106.990 102.049,101.105 103.643 M109.749 104.957 C 112.613 106.348,113.335 107.535,117.527 117.747 C 118.034 118.984,118.386 120.044,118.308 120.104 C 117.983 120.354,108.919 124.027,108.856 123.935 C 108.817 123.879,107.912 121.689,106.842 119.068 C 104.367 112.999,102.573 111.486,100.691 113.878 C 99.632 115.224,99.639 115.247,105.560 129.646 C 111.998 145.303,112.061 145.409,114.422 144.586 C 116.293 143.933,116.466 142.174,115.000 138.702 C 114.450 137.399,113.568 135.309,113.039 134.057 L 112.078 131.780 116.643 129.890 C 119.154 128.851,121.349 128.002,121.521 128.004 C 121.693 128.007,122.642 130.017,123.631 132.473 C 125.935 138.193,125.965 137.995,121.566 146.078 L 118.167 152.326 116.000 153.207 C 110.460 155.461,104.474 153.822,102.222 149.434 C 99.105 143.360,89.273 118.041,89.247 116.022 C 89.146 108.062,101.934 101.160,109.749 104.957 M131.524 105.167 C 131.999 108.540,133.535 115.287,133.934 115.750 C 134.324 116.202,134.338 116.333,133.996 116.333 C 133.754 116.333,133.628 116.406,133.717 116.495 C 133.806 116.583,134.918 116.212,136.189 115.670 C 137.460 115.128,138.357 114.681,138.183 114.676 C 138.009 114.671,138.032 114.501,138.235 114.298 C 138.765 113.769,132.690 104.566,132.122 105.037 C 131.849 105.264,131.676 105.231,131.576 104.934 C 131.496 104.695,131.473 104.800,131.524 105.167 M135.834 111.212 C 136.658 112.520,137.333 113.742,137.333 113.926 C 137.333 114.516,134.889 115.335,134.462 114.889 C 134.066 114.475,132.994 109.398,133.007 108.000 L 133.015 107.167 133.674 108.000 C 134.037 108.458,135.009 109.904,135.834 111.212 M134.484 122.945 C 128.410 134.127,127.593 135.741,128.170 135.418 C 128.492 135.238,130.679 131.583,133.031 127.295 C 135.382 123.008,137.503 119.372,137.743 119.216 C 138.019 119.038,141.541 119.991,147.285 121.800 C 156.574 124.725,157.333 124.916,157.333 124.333 C 157.333 124.150,157.252 124.000,157.153 124.000 C 157.054 124.000,152.891 122.716,147.903 121.147 C 142.915 119.578,138.451 118.243,137.984 118.180 C 137.201 118.075,136.923 118.453,134.484 122.945 M137.926 120.750 C 137.413 121.149,123.334 146.771,122.494 148.833 C 121.296 151.775,121.701 151.650,146.461 141.453 C 172.945 130.546,172.577 130.774,166.755 128.885 C 143.705 121.405,138.845 120.034,137.926 120.750 M259.146 141.417 L 258.167 142.500 259.250 141.521 C 259.846 140.983,260.333 140.495,260.333 140.438 C 260.333 140.180,260.058 140.407,259.146 141.417 M47.154 188.750 L 45.500 190.500 47.250 188.846 C 48.876 187.309,49.153 187.000,48.904 187.000 C 48.851 187.000,48.064 187.787,47.154 188.750 M46.833 216.667 C 47.549 217.400,48.210 218.000,48.302 218.000 C 48.394 218.000,47.883 217.400,47.167 216.667 C 46.451 215.933,45.790 215.333,45.698 215.333 C 45.606 215.333,46.117 215.933,46.833 216.667 M161.806 226.295 C 167.321 229.010,168.167 231.164,168.167 242.500 L 168.167 251.500 167.246 253.375 C 162.843 262.340,150.661 262.344,146.250 253.381 L 145.167 251.180 145.167 242.507 L 145.167 233.833 146.076 232.000 C 149.157 225.787,155.846 223.361,161.806 226.295 M255.476 226.297 C 257.950 227.515,259.673 229.307,260.958 232.000 L 261.833 233.833 261.833 242.507 L 261.833 251.181 260.736 253.410 C 256.353 262.313,244.138 262.302,239.763 253.393 L 238.833 251.500 238.833 242.667 L 238.833 233.833 239.723 231.935 C 242.579 225.843,249.513 223.361,255.476 226.297 M218.310 260.821 C 220.682 262.048,221.992 264.872,221.336 267.347 C 220.883 269.056,207.799 282.656,205.761 283.536 C 202.498 284.946,201.326 284.244,193.112 275.953 C 187.125 269.910,186.001 268.619,185.683 267.417 C 185.034 264.966,186.152 262.378,188.470 260.964 C 189.870 260.110,216.688 259.982,218.310 260.821 M208.109 300.297 C 222.017 309.833,248.941 308.580,260.284 297.869 L 261.734 296.500 261.496 298.000 C 257.410 323.793,238.192 343.370,213.167 347.232 C 181.200 352.164,154.473 333.980,146.326 301.755 C 144.982 296.438,145.000 296.275,146.750 297.886 C 159.794 309.891,190.891 309.606,202.473 297.374 L 203.445 296.347 204.973 297.771 C 205.813 298.554,207.224 299.691,208.109 300.297 " stroke="none" fill="#fbb628" fill-rule="evenodd"></path><path id="path1" d="M119.958 20.661 C 113.989 21.407,83.854 33.424,77.610 37.547 C 70.210 42.435,64.791 51.017,63.234 60.318 L 62.821 62.787 59.102 65.310 C 35.221 81.515,24.852 111.029,33.542 138.063 C 34.172 140.023,38.433 150.737,43.010 161.872 C 52.443 184.816,51.769 182.679,49.917 183.775 C 32.565 194.048,38.083 222.243,57.892 224.525 C 58.777 224.626,59.837 224.778,60.250 224.861 L 61.000 225.013 61.000 244.840 C 61.000 255.745,60.924 264.667,60.830 264.667 C 60.737 264.667,57.806 263.238,54.317 261.492 C 47.520 258.090,45.981 257.639,43.519 258.328 C 37.820 259.924,35.870 267.661,40.158 271.663 C 40.647 272.120,45.499 274.745,50.940 277.497 L 60.833 282.500 60.919 301.081 L 61.006 319.662 51.317 324.508 C 44.572 327.882,41.178 329.770,40.144 330.724 C 34.990 335.474,38.869 344.364,45.907 343.931 C 47.734 343.818,48.759 343.418,54.507 340.568 C 62.261 336.725,61.459 336.834,61.960 339.551 C 65.638 359.512,82.551 375.819,102.515 378.653 C 107.470 379.357,304.245 378.962,307.167 378.243 C 325.687 373.683,339.591 359.597,344.339 340.583 C 344.717 339.071,345.090 337.647,345.168 337.419 C 345.263 337.143,347.595 338.138,352.150 340.397 C 358.028 343.313,359.271 343.810,360.993 343.935 C 366.332 344.321,370.409 339.181,368.891 333.976 C 367.988 330.882,367.104 330.244,355.991 324.667 L 346.000 319.655 346.000 301.075 L 346.000 282.495 355.768 277.614 C 361.141 274.930,366.022 272.324,366.616 271.825 C 371.048 268.095,369.494 260.325,363.947 258.482 C 361.166 257.559,359.828 257.915,352.707 261.480 C 349.205 263.233,346.266 264.667,346.175 264.667 C 346.084 264.667,345.970 227.204,345.921 181.417 C 345.836 102.707,345.799 98.059,345.238 96.192 C 341.824 84.828,328.611 79.358,317.914 84.879 C 315.672 86.036,313.732 87.904,290.704 111.072 C 277.066 124.793,265.866 135.977,265.814 135.925 C 265.762 135.873,266.082 134.577,266.526 133.044 C 269.876 121.479,263.551 109.880,251.667 105.797 C 249.929 105.200,243.704 104.997,239.385 105.397 L 238.269 105.500 229.531 84.310 C 219.105 59.030,217.893 56.633,211.885 49.419 C 196.868 31.386,171.233 22.799,148.353 28.136 L 146.288 28.618 143.621 26.802 C 136.442 21.914,127.825 19.677,119.958 20.661 M132.333 23.702 C 135.818 24.653,140.427 26.944,143.266 29.137 L 145.666 30.992 147.583 30.487 C 169.886 24.616,195.109 32.796,210.315 50.833 C 216.054 57.640,217.296 60.121,227.979 86.116 C 232.941 98.188,237.079 108.191,237.174 108.345 C 237.269 108.500,238.207 108.323,239.257 107.952 C 258.482 101.172,273.926 126.200,259.656 141.011 L 257.740 143.000 259.787 143.002 L 261.833 143.003 289.500 115.193 C 319.865 84.670,318.057 86.273,323.435 85.106 C 331.350 83.389,339.712 87.787,342.727 95.252 L 343.500 97.167 343.586 182.583 C 343.644 240.700,343.781 268.000,344.014 268.000 C 344.202 268.000,347.940 266.200,352.320 264.000 C 360.659 259.812,361.374 259.590,363.582 260.513 C 366.046 261.542,367.107 263.204,367.109 266.037 C 367.113 269.578,367.079 269.604,354.634 275.845 L 343.661 281.347 343.747 301.090 L 343.833 320.833 354.650 326.333 C 365.967 332.088,366.457 332.427,367.005 334.857 C 367.802 338.387,365.471 341.631,361.930 341.920 C 360.229 342.059,359.878 341.921,352.073 338.032 C 343.079 333.551,343.336 333.643,343.326 334.917 C 343.322 335.421,343.034 337.122,342.686 338.696 C 338.604 357.153,324.836 371.721,307.333 376.104 L 304.500 376.814 205.000 376.917 C 94.531 377.031,102.194 377.176,95.113 374.828 C 78.493 369.317,65.295 353.214,63.495 336.250 C 63.363 335.012,63.203 334.000,63.138 334.000 C 63.073 334.000,59.378 335.815,54.927 338.032 C 47.180 341.892,46.760 342.058,45.107 341.923 C 41.057 341.593,38.571 337.064,40.447 333.435 C 41.224 331.933,41.748 331.623,52.917 326.039 L 63.000 320.998 63.000 301.078 L 63.000 281.158 52.634 275.996 C 46.849 273.115,41.855 270.415,41.333 269.886 C 38.706 267.226,39.684 262.202,43.134 260.635 C 45.679 259.479,46.336 259.667,54.902 264.000 C 59.251 266.200,62.853 268.000,62.905 268.000 C 62.957 268.000,63.000 257.800,63.000 245.333 L 63.000 222.667 60.737 222.667 C 48.575 222.667,39.201 210.856,41.776 198.778 C 42.996 193.058,47.475 187.113,52.271 184.850 C 53.417 184.310,54.291 183.710,54.214 183.517 C 54.137 183.324,50.219 173.799,45.507 162.349 C 32.682 131.185,32.836 131.716,32.858 118.667 C 32.896 96.659,43.933 76.623,61.833 66.064 C 64.987 64.204,64.872 64.351,65.128 61.851 C 66.064 52.720,72.043 43.287,79.878 38.583 C 83.635 36.328,113.190 24.139,116.833 23.343 C 121.654 22.289,127.665 22.429,132.333 23.702 M131.383 104.000 C 131.575 104.550,131.871 105.000,132.041 105.000 C 132.211 105.000,132.118 104.550,131.833 104.000 C 131.549 103.450,131.253 103.000,131.175 103.000 C 131.098 103.000,131.192 103.450,131.383 104.000 M153.729 225.501 C 149.355 226.727,146.097 230.437,145.350 235.043 C 144.916 237.717,144.899 247.527,145.324 250.121 C 147.201 261.582,162.330 263.620,167.271 253.079 L 168.167 251.167 168.167 242.500 L 168.167 233.833 167.265 231.910 C 164.891 226.843,158.960 224.035,153.729 225.501 M247.716 225.339 C 244.701 225.972,241.057 229.064,239.573 232.247 C 238.869 233.758,238.833 234.248,238.833 242.507 L 238.833 251.181 239.927 253.402 C 244.981 263.669,259.603 261.483,261.699 250.147 C 262.294 246.928,261.919 234.570,261.163 232.500 C 259.363 227.566,253.069 224.215,247.716 225.339 " stroke="none" fill="#2e1f20" fill-rule="evenodd"></path><path id="path2" d="M289.497 115.083 L 282.167 122.500 289.583 115.170 C 296.475 108.358,297.150 107.667,296.914 107.667 C 296.866 107.667,293.529 111.004,289.497 115.083 M258.583 143.241 C 259.179 143.315,260.154 143.315,260.750 143.241 C 261.346 143.167,260.858 143.107,259.667 143.107 C 258.475 143.107,257.987 143.167,258.583 143.241 M257.333 227.438 C 257.333 227.495,257.821 227.983,258.417 228.521 L 259.500 229.500 258.521 228.417 C 257.608 227.407,257.333 227.180,257.333 227.438 M156.083 260.230 C 156.404 260.314,156.929 260.314,157.250 260.230 C 157.571 260.146,157.308 260.077,156.667 260.077 C 156.025 260.077,155.762 260.146,156.083 260.230 M249.750 260.230 C 250.071 260.314,250.596 260.314,250.917 260.230 C 251.237 260.146,250.975 260.077,250.333 260.077 C 249.692 260.077,249.429 260.146,249.750 260.230 M188.470 260.964 C 186.152 262.378,185.034 264.966,185.683 267.417 C 186.118 269.060,199.266 282.684,201.239 283.536 C 204.502 284.946,205.674 284.244,213.888 275.953 C 220.017 269.767,220.993 268.638,221.336 267.347 C 221.992 264.872,220.682 262.048,218.310 260.821 C 216.688 259.982,189.870 260.110,188.470 260.964 M202.473 297.374 C 190.891 309.606,159.794 309.891,146.750 297.886 C 145.000 296.275,144.982 296.438,146.326 301.755 C 152.768 327.236,169.779 343.520,193.833 347.232 C 226.899 352.334,256.275 330.961,261.496 298.000 L 261.734 296.500 260.284 297.869 C 247.686 309.765,217.783 309.712,204.973 297.771 L 203.445 296.347 202.473 297.374 " stroke="none" fill="#c31a83" fill-rule="evenodd"></path><path id="path3" d="M154.000 83.362 C 148.775 85.544,143.507 87.743,142.294 88.248 L 140.088 89.167 141.815 93.410 C 142.765 95.744,143.631 97.742,143.739 97.850 C 143.847 97.959,145.406 97.442,147.202 96.702 C 148.999 95.963,150.491 95.390,150.518 95.429 C 150.545 95.468,153.381 102.325,156.819 110.667 C 160.258 119.008,163.097 125.863,163.128 125.898 C 163.160 125.934,165.574 126.724,168.493 127.654 L 173.800 129.344 175.235 128.755 C 176.024 128.432,176.609 128.017,176.534 127.833 C 176.459 127.650,172.994 119.277,168.834 109.226 C 164.674 99.176,161.322 90.916,161.385 90.871 C 161.448 90.826,162.925 90.209,164.667 89.500 C 166.408 88.791,167.872 88.187,167.920 88.158 C 168.208 87.980,164.359 79.491,163.971 79.447 C 163.712 79.417,159.225 81.179,154.000 83.362 M127.388 94.419 L 120.942 97.121 121.162 98.644 C 121.282 99.481,121.889 103.092,122.511 106.667 C 123.132 110.242,123.726 113.692,123.830 114.333 C 123.934 114.975,124.237 116.700,124.504 118.167 C 125.392 123.055,126.278 128.130,126.876 131.750 C 127.202 133.721,127.550 135.329,127.651 135.323 C 127.751 135.318,129.933 131.418,132.500 126.658 C 135.067 121.897,137.310 118.002,137.485 118.001 C 137.816 118.000,153.978 123.002,156.368 123.845 C 157.111 124.108,157.669 124.201,157.609 124.053 C 157.254 123.178,134.440 91.701,134.167 91.708 C 133.983 91.713,130.933 92.933,127.388 94.419 M134.906 108.334 C 136.901 111.359,138.633 113.999,138.756 114.201 C 138.895 114.431,138.075 114.933,136.578 115.535 C 135.257 116.066,134.084 116.542,133.972 116.594 C 133.859 116.646,133.209 113.871,132.526 110.428 C 131.843 106.984,131.200 103.792,131.096 103.333 C 130.829 102.161,130.871 102.216,134.906 108.334 M102.920 104.066 C 95.342 105.027,89.176 110.418,89.247 116.022 C 89.273 118.041,99.105 143.360,102.222 149.434 C 104.474 153.822,110.460 155.461,116.000 153.207 L 118.167 152.326 121.566 146.078 C 125.965 137.995,125.935 138.193,123.631 132.473 C 122.642 130.017,121.693 128.007,121.521 128.004 C 121.349 128.002,119.154 128.851,116.643 129.890 L 112.078 131.780 113.039 134.057 C 113.568 135.309,114.450 137.399,115.000 138.702 C 116.466 142.174,116.293 143.933,114.422 144.586 C 112.061 145.409,111.998 145.303,105.560 129.646 C 99.639 115.247,99.632 115.224,100.691 113.878 C 102.573 111.486,104.367 112.999,106.842 119.068 C 107.912 121.689,108.817 123.879,108.856 123.935 C 108.919 124.027,117.983 120.354,118.308 120.104 C 118.450 119.995,117.892 118.570,115.118 111.957 C 112.359 105.378,109.117 103.281,102.920 104.066 " stroke="none" fill="#fafafa" fill-rule="evenodd"></path><path id="path4" d="M119.833 22.906 C 114.349 23.669,84.148 35.851,78.833 39.445 C 71.744 44.238,66.893 51.936,65.474 60.645 C 65.188 62.399,64.867 64.058,64.761 64.333 C 64.485 65.045,64.636 69.170,65.016 71.333 C 65.615 74.745,66.546 77.110,83.583 118.500 C 92.940 141.233,100.969 160.755,101.427 161.881 L 102.258 163.928 78.545 173.660 C 65.504 179.012,54.683 183.568,54.500 183.783 C 54.317 183.998,53.161 184.679,51.932 185.296 C 35.480 193.553,39.719 219.344,58.017 222.313 C 64.714 223.399,59.389 225.346,135.833 193.863 C 172.683 178.686,214.308 161.548,228.333 155.778 C 256.618 144.142,255.880 144.491,259.158 141.193 C 273.410 126.854,259.360 101.949,240.333 107.825 C 239.325 108.136,238.050 108.446,237.500 108.512 C 236.950 108.579,225.839 113.032,212.808 118.407 L 189.116 128.181 170.829 83.728 C 156.912 49.896,152.179 38.730,151.021 36.991 C 149.273 34.364,146.368 31.000,145.850 31.000 C 145.656 31.000,144.447 30.212,143.165 29.249 C 136.551 24.283,127.542 21.833,119.833 22.906 M164.752 79.083 C 165.443 79.611,168.333 86.668,168.333 87.829 C 168.333 88.595,167.996 88.852,165.462 90.018 C 161.936 91.639,161.360 89.098,169.973 109.929 C 177.800 128.857,177.692 128.460,175.285 129.455 L 173.736 130.095 168.547 128.498 C 162.026 126.493,163.136 128.038,156.338 111.500 C 149.497 94.856,150.496 96.314,146.876 97.689 C 143.304 99.045,143.343 99.072,141.170 93.825 C 139.288 89.279,139.322 88.760,141.574 87.721 C 144.946 86.164,163.193 78.711,163.686 78.690 C 163.972 78.677,164.452 78.854,164.752 79.083 M135.291 91.917 C 136.258 92.831,155.991 120.150,157.354 122.460 C 157.935 123.444,157.994 123.773,157.662 124.172 C 157.065 124.891,157.196 124.921,147.285 121.800 C 141.541 119.991,138.019 119.038,137.743 119.216 C 137.503 119.372,135.382 123.008,133.031 127.295 C 128.622 135.333,128.173 135.943,127.190 135.225 C 126.647 134.828,120.340 100.548,120.335 97.968 C 120.332 96.648,125.113 94.170,133.333 91.231 C 134.176 90.930,134.292 90.970,135.291 91.917 M109.447 103.942 C 112.836 105.441,114.143 107.298,117.303 115.104 C 119.602 120.783,119.800 120.376,113.477 122.961 C 108.122 125.151,108.794 125.594,105.331 117.580 C 103.865 114.190,103.018 113.409,101.698 114.235 C 100.524 114.970,100.973 116.429,106.425 129.580 C 112.726 144.782,112.911 145.089,114.696 143.304 C 115.555 142.445,115.491 142.147,113.287 136.707 C 110.983 131.018,110.752 131.390,118.483 128.335 C 122.044 126.927,122.171 127.002,124.197 131.722 C 126.735 137.633,126.666 138.281,122.705 145.667 C 118.994 152.587,118.627 153.024,115.544 154.167 C 110.351 156.094,104.982 154.747,102.260 150.833 C 99.859 147.381,88.533 118.659,88.524 116.000 C 88.499 107.791,101.373 100.371,109.447 103.942 M133.007 108.000 C 132.994 109.398,134.066 114.475,134.462 114.889 C 134.889 115.335,137.333 114.516,137.333 113.926 C 137.333 113.556,134.715 109.315,133.674 108.000 L 133.015 107.167 133.007 108.000 M151.966 124.189 C 169.117 129.609,169.285 129.666,169.865 130.246 C 170.880 131.261,168.855 132.230,146.461 141.453 C 121.701 151.650,121.296 151.775,122.494 148.833 C 123.334 146.771,137.413 121.149,137.926 120.750 C 138.806 120.064,139.284 120.181,151.966 124.189 " stroke="none" fill="#fbfb2b" fill-rule="evenodd"></path></g></svg>